<svg xmlns="http://www.w3.org/2000/svg" xmlns:xlink="http://www.w3.org/1999/xlink" width="202.426" height="37.046" viewBox="0 0 202.426 37.046"><defs><clipPath id="a"><rect width="202.426" height="37.046" fill="none"/></clipPath></defs><g transform="translate(0)" clip-path="url(#a)"><path d="M305.616,275.352a2.192,2.192,0,0,1-2.191-2.189V262.308c0-2.013-2.119-3.651-4.72-3.651s-4.721,1.637-4.721,3.651v10.855a2.19,2.19,0,0,1-4.38,0V262.308c0-4.43,4.083-8.03,9.1-8.03s9.1,3.6,9.1,8.03v10.855A2.19,2.19,0,0,1,305.616,275.352Z" transform="translate(-242.228 -246.335)" fill="#00bff2"/><path d="M401.969,275.413A10.517,10.517,0,1,1,412.485,264.9,10.528,10.528,0,0,1,401.969,275.413Zm0-16.653A6.136,6.136,0,1,0,408.1,264.9,6.144,6.144,0,0,0,401.969,258.76Z" transform="translate(-303.222 -246.396)" fill="#00bff2"/><path d="M350.584,275.413a2.108,2.108,0,0,1-.424-.041,10.475,10.475,0,0,1-10.076-10.493,10.5,10.5,0,0,1,18.746-6.5,2.189,2.189,0,0,1-.248,2.979l-6.305,5.728a2.19,2.19,0,1,1-2.944-3.242l4.542-4.129a6.125,6.125,0,0,0-7.593,9.524A5.98,5.98,0,0,0,350.526,271h.058a2.4,2.4,0,0,1,.335.025,6.107,6.107,0,0,0,4.446-2.283,2.191,2.191,0,0,1,3.414,2.749A10.47,10.47,0,0,1,350.584,275.413Z" transform="translate(-272.46 -246.396)" fill="#00bff2"/><path d="M465.065,274.246a30.863,30.863,0,0,1-8.58,1.051c-4.412,0-8.458-2.064-8.458-6.676V268.3c0-3.8,3.6-5.87,9.47-6.072l3.52-.122v-.97c0-2.347-1.861-3.077-4.734-3.077a15.775,15.775,0,0,0-6.152,1.255c-.4-1.215-.768-2.427-1.173-3.64a20.986,20.986,0,0,1,7.609-1.418c4.815,0,8.5,1.9,8.5,7.448Zm-4.048-8.9c-5.382.081-8.984.243-8.984,2.955v.323c0,2.063,1.983,2.874,4.533,2.874a18.467,18.467,0,0,0,4.451-.4Z" transform="translate(-337.104 -246.321)" fill="#8bc53f"/><path d="M496.519,270.206c3.036,1.739,10.118,1.862,10.118-.851,0-4.25-10.846-.931-10.846-9.025,0-6.759,9.915-7.366,14.449-4.29l-1.174,3.641c-3.035-2.225-9.187-2.184-9.187.567,0,4.251,10.847.931,10.847,8.784,0,7.323-11.332,7.2-15.378,4.774Z" transform="translate(-365.442 -246.326)" fill="#8bc53f"/><path d="M539.4,270.206c3.035,1.739,10.118,1.862,10.118-.851,0-4.25-10.847-.931-10.847-9.025,0-6.759,9.916-7.366,14.449-4.29l-1.174,3.641c-3.036-2.225-9.188-2.184-9.188.567,0,4.251,10.847.931,10.847,8.784,0,7.323-11.332,7.2-15.379,4.774Z" transform="translate(-391.12 -246.326)" fill="#8bc53f"/><path d="M584.418,234.477a2.49,2.49,0,1,1-2.51,2.51A2.462,2.462,0,0,1,584.418,234.477Zm-2.025,8.337H586.4v20.236h-4.007Z" transform="translate(-417.282 -234.477)" fill="#8bc53f"/><path d="M600.841,270.206c3.035,1.739,10.117,1.862,10.117-.851,0-4.25-10.846-.931-10.846-9.025,0-6.759,9.916-7.366,14.449-4.29l-1.174,3.641c-3.035-2.225-9.187-2.184-9.187.567,0,4.251,10.846.931,10.846,8.784,0,7.323-11.332,7.2-15.378,4.774Z" transform="translate(-427.918 -246.326)" fill="#8bc53f"/><path d="M644.361,240.129h4.007v6.07h7.406V250h-7.406v9.389c0,2.711,1.294,3.6,3.157,3.6a9.461,9.461,0,0,0,4.411-1.012l1.174,3.563a11.75,11.75,0,0,1-5.584,1.254c-4.088,0-7.164-1.941-7.164-7.406Z" transform="translate(-454.683 -237.862)" fill="#8bc53f"/><path d="M208.262,250.165a11.634,11.634,0,0,0-8.227-3.067,13.273,13.273,0,0,0-9.677-3.949,13.546,13.546,0,0,0-9.648,4.013,10.694,10.694,0,0,0-9.212,10.577c0,4.4,2.134,11.588,15.759,12.526v6.451c10.312,0,15.375-3.649,18.179-9.406a10.659,10.659,0,0,0,5.946-9.571A10.38,10.38,0,0,0,208.262,250.165Zm-5.164,14.76a13.686,13.686,0,0,1-12.74,8.688v-6.346c-9.255,0-15.76-2.627-15.76-9.529a7.577,7.577,0,0,1,7.576-7.576h0a10.491,10.491,0,0,1,8.179-3.913,14.014,14.014,0,0,1,12.779,8.309,15.692,15.692,0,0,0-1.249-4.242,7.425,7.425,0,0,1,6.391,7.422A7.575,7.575,0,0,1,203.1,264.926Z" transform="translate(-171.497 -239.67)" fill="#00bff2"/></g></svg>